HIERARCHY
ROOT Hips
{
    OFFSET 0.000000 0.000000 0.000000
    CHANNELS 6 Xposition Yposition Zposition Zrotation Xrotation Yrotation
    JOINT Spine
    {
        OFFSET -0.000000 14.517291 0.000000
        CHANNELS 3 Zrotation Xrotation Yrotation
        JOINT Spine1
        {
            OFFSET -0.000000 37.558300 0.000000
            CHANNELS 3 Zrotation Xrotation Yrotation
            JOINT Neck
            {
                OFFSET -0.000000 37.404057 3.400369
                CHANNELS 3 Zrotation Xrotation Yrotation
                JOINT Head
                {
                    OFFSET -0.000000 24.785618 -3.540803
                    CHANNELS 3 Zrotation Xrotation Yrotation
                    End Site
                    {
                        OFFSET -0.000000 35.408028 0.000000
                    }
                }
            }
            JOINT LeftShoulder
            {
                OFFSET 6.992933 33.973492 -0.192664
                CHANNELS 3 Zrotation Xrotation Yrotation
                JOINT LeftArm
                {
                    OFFSET 21.527611 0.000000 0.000000
                    CHANNELS 3 Zrotation Xrotation Yrotation
                    JOINT LeftForeArm
                    {
                        OFFSET 56.353916 0.000000 0.000000
                        CHANNELS 3 Zrotation Xrotation Yrotation
                        JOINT LeftHand
                        {
                            OFFSET 47.774071 0.000000 0.000000
                            CHANNELS 3 Zrotation Xrotation Yrotation
                            End Site
                            {
                                OFFSET 26.556021 0.000000 0.000000
                            }
                        }
                    }
                }
            }
            JOINT RightShoulder
            {
                OFFSET -7.065357 33.973492 -0.192664
                CHANNELS 3 Zrotation Xrotation Yrotation
                JOINT RightArm
                {
                    OFFSET -21.527611 0.000000 0.000000
                    CHANNELS 3 Zrotation Xrotation Yrotation
                    JOINT RightForeArm
                    {
                        OFFSET -56.353916 0.000000 0.000000
                        CHANNELS 3 Zrotation Xrotation Yrotation
                        JOINT RightHand
                        {
                            OFFSET -47.774071 0.000000 0.000000
                            CHANNELS 3 Zrotation Xrotation Yrotation
                            End Site
                            {
                                OFFSET -26.556021 0.000000 0.000000
                            }
                        }
                    }
                }
            }
        }
    }
    JOINT LeftUpLeg
    {
        OFFSET 17.704014 0.000000 0.000000
        CHANNELS 3 Zrotation Xrotation Yrotation
        JOINT LeftLeg
        {
            OFFSET -0.000000 -81.181816 0.000000
            CHANNELS 3 Zrotation Xrotation Yrotation
            JOINT LeftFoot
            {
                OFFSET -0.000000 -62.821102 0.000000
                CHANNELS 3 Zrotation Xrotation Yrotation
                JOINT LeftToeBase
                {
                    OFFSET -0.000000 -11.507608 26.556021
                    CHANNELS 3 Zrotation Xrotation Yrotation
                    End Site
                    {
                        OFFSET -0.000000 0.000000 7.081605
                    }
                }
            }
        }
    }
    JOINT RightUpLeg
    {
        OFFSET -17.704014 0.000000 0.000000
        CHANNELS 3 Zrotation Xrotation Yrotation
        JOINT RightLeg
        {
            OFFSET -0.000000 -81.181816 0.000000
            CHANNELS 3 Zrotation Xrotation Yrotation
            JOINT RightFoot
            {
                OFFSET -0.000000 -62.821102 0.000000
                CHANNELS 3 Zrotation Xrotation Yrotation
                JOINT RightToeBase
                {
                    OFFSET -0.000000 -11.507608 26.556021
                    CHANNELS 3 Zrotation Xrotation Yrotation
                    End Site
                    {
                        OFFSET -0.000000 0.000000 7.081605
                    }
                }
            }
        }
    }
}
MOTION
Frames:    11
Frame Time:    0.008333
-19.855572    163.340790    -79.553520    -9.146078    -21.466759    42.066368    2.584528    4.823575    -4.761554    5.553904    8.084148    -1.945235    18.788309    -2.445083    -0.927381    1.852774    0.168563    -3.933092    16.564047    0.392596    -22.638783    -28.720169    4.305997    -66.283066    12.005674    -52.852425    -92.649933    -7.358194    -43.507633    -21.463602    11.231606    7.584018    -8.845256    30.788540    13.643580    15.980013    -11.656399    3.718041    40.659046    -22.444014    1.701284    31.201021    24.094706    -0.931450    6.918128    -5.042373    37.430660    -16.337420    8.957515    -22.478001    34.934124    0.000000    0.000000    0.000000    -89.062561    -45.422688    -54.190540    7.662624    15.975663    -7.929272    20.951744    13.571520    -36.347755    0.000000    0.000000    0.000000    
-19.858759    163.348694    -79.567932    -9.146375    -21.480429    42.067024    2.587079    4.804169    -4.743673    5.555007    8.125315    -1.941474    18.740488    -2.390379    -0.962719    1.917971    0.104258    -3.942110    16.448502    0.610322    -22.559383    -28.579422    4.930297    -65.402870    10.643184    -51.848640    -93.935898    -7.112140    -43.238705    -21.052193    11.188441    7.588197    -8.902178    30.807369    13.393578    15.872606    -11.735957    3.680424    41.201580    -22.542526    1.747151    31.113737    24.097811    -0.922986    6.919360    -5.033792    37.419010    -16.329866    8.926397    -22.481403    34.926056    0.000000    0.000000    0.000000    -89.049118    -45.420753    -54.144810    7.692417    15.985549    -7.976021    20.916039    13.562849    -36.344097    0.000000    0.000000    0.000000    
-19.864685    163.361969    -79.583870    -9.155624    -21.503855    42.062145    2.607659    4.780583    -4.722855    5.544802    8.177481    -1.936190    18.697874    -2.339882    -0.997392    1.981902    0.042425    -3.952231    16.345062    0.813389    -22.494461    -28.438782    5.535937    -64.525230    9.528646    -50.892551    -95.009018    -6.925529    -42.906467    -20.677422    11.151424    7.585681    -8.958331    30.830927    13.434296    15.722387    -12.020700    3.210975    41.791851    -22.079292    1.571193    31.207222    24.111992    -0.917321    6.913138    -5.020175    37.415188    -16.332800    8.926645    -22.466211    34.926819    0.000000    0.000000    0.000000    -89.009018    -45.422714    -54.105247    7.697471    15.992218    -7.966401    20.913998    13.551058    -36.332623    0.000000    0.000000    0.000000    
-19.873238    163.379089    -79.598442    -9.171239    -21.520702    42.060894    2.616649    4.745097    -4.701580    5.549786    8.227667    -1.932013    18.664228    -2.306807    -1.028978    2.026360    0.014100    -3.966938    16.252262    0.967317    -22.466049    -28.270126    6.203440    -63.614883    8.638021    -50.065723    -95.902191    -6.773854    -42.599083    -20.390827    11.101526    7.586809    -8.995545    30.845203    13.119237    15.583288    -12.079593    3.302114    42.388565    -22.354168    1.709959    31.056816    24.129801    -0.914933    6.890083    -5.024422    37.392025    -16.327736    8.911727    -22.450573    34.931644    0.000000    0.000000    0.000000    -88.991615    -45.424877    -54.042187    7.730518    16.003420    -8.037745    20.867172    13.583036    -36.318378    0.000000    0.000000    0.000000    
-19.879118    163.399689    -79.606842    -9.187079    -21.564701    42.064121    2.663903    4.731601    -4.686808    5.517608    8.269322    -1.926176    18.677853    -2.291827    -1.046037    2.029560    0.023582    -3.984268    16.188578    1.087837    -22.457695    -28.376644    6.660331    -62.647846    7.640963    -48.855595    -96.846626    -6.518124    -41.985569    -20.198132    11.072877    7.587626    -9.051069    30.848667    12.891665    15.444510    -12.224826    3.313556    43.017761    -22.456699    1.883317    30.791674    24.167089    -0.892275    6.858235    -5.031438    37.370445    -16.329323    8.916063    -22.436771    34.957378    0.000000    0.000000    0.000000    -88.961868    -45.437408    -53.914177    7.777768    16.060478    -8.134055    20.809359    13.633185    -36.299892    0.000000    0.000000    0.000000    
-19.889763    163.424683    -79.617119    -9.210038    -21.600410    42.061272    2.702451    4.726908    -4.672582    5.503164    8.283627    -1.920564    18.703232    -2.269827    -1.045662    1.995146    0.028889    -3.989596    16.098667    1.193862    -22.443069    -28.339262    7.309223    -61.734356    7.068880    -48.023560    -97.496132    -6.309279    -41.506470    -19.912956    11.042134    7.568248    -9.096007    30.847502    12.804609    15.275038    -12.470281    3.198562    43.650887    -22.608438    1.937966    30.628872    24.205732    -0.878963    6.816082    -5.048100    37.338333    -16.295750    8.908539    -22.411448    34.948437    0.000000    0.000000    0.000000    -88.924728    -45.479889    -53.589603    7.827585    16.092422    -8.524256    20.738197    13.754534    -36.192631    0.000000    0.000000    0.000000    
-19.898451    163.455017    -79.618919    -9.225687    -21.669043    42.060196    2.765723    4.758659    -4.658461    5.464045    8.284034    -1.911909    18.786886    -2.238539    -1.047437    1.904209    0.023052    -4.013552    16.032841    1.308894    -22.417711    -28.226755    8.001667    -60.872177    6.679438    -47.327518    -97.988304    -6.123115    -41.050854    -19.667149    11.033735    7.537569    -9.135354    30.848780    12.758261    15.057602    -12.761544    3.033952    44.346115    -22.641266    2.018842    30.414618    24.264111    -0.829096    6.783954    -5.051906    37.300915    -16.291878    8.892920    -22.394773    34.956036    0.000000    0.000000    0.000000    -88.856781    -45.512371    -53.407158    7.865968    16.163733    -8.665361    20.682869    13.819061    -36.145920    0.000000    0.000000    0.000000    
-19.910574    163.482925    -79.621597    -9.243194    -21.721804    42.061905    2.803413    4.774233    -4.646467    5.463583    8.304775    -1.908256    18.826597    -2.231840    -1.042682    1.845236    0.014592    -4.022615    15.933251    1.435202    -22.371820    -28.208618    8.575473    -60.031036    6.151034    -46.493813    -98.591080    -5.822574    -40.583725    -19.388447    11.004315    7.487781    -9.187132    30.833515    12.424714    14.880198    -12.776283    3.071021    45.102600    -22.750515    2.149828    30.324003    24.313192    -0.796099    6.756629    -5.052449    37.263607    -16.295362    8.874855    -22.375132    34.959774    0.000000    0.000000    0.000000    -88.316566    -45.243244    -54.184402    7.602562    15.512388    -7.269463    20.490990    13.921311    -36.174469    0.000000    0.000000    0.000000    
-19.925379    163.512222    -79.629478    -9.264679    -21.770685    42.045258    2.851070    4.796517    -4.629909    5.439064    8.316383    -1.900639    18.877481    -2.211807    -1.043670    1.793264    -0.017902    -4.035971    15.859785    1.588742    -22.292871    -28.088245    9.197340    -59.276089    5.785398    -45.825359    -99.058342    -5.726395    -40.152252    -19.183050    10.997383    7.439698    -9.233710    30.717144    12.157900    14.630466    -12.718464    3.082414    46.065266    -22.914225    2.256274    30.143717    24.356140    -0.765721    6.764272    -5.024989    37.235317    -16.293865    8.822988    -22.370714    34.941502    0.000000    0.000000    0.000000    -88.341560    -45.328907    -53.954964    7.667888    15.676435    -7.599706    20.475754    13.962808    -36.075596    0.000000    0.000000    0.000000    
-19.939550    163.537537    -79.631973    -9.285542    -21.802101    42.037682    2.875166    4.783226    -4.620694    5.436161    8.362906    -1.899407    18.916370    -2.189172    -1.043599    1.739907    -0.079067    -4.045492    15.769742    1.732680    -22.214947    -27.933077    9.814058    -58.543396    5.404626    -45.218269    -99.542572    -5.548749    -39.820900    -18.988405    10.977531    7.410764    -9.275464    30.679996    11.890102    14.447559    -12.817908    3.046732    46.886265    -22.954281    2.376421    30.075819    24.393827    -0.746906    6.751451    -5.023877    37.199711    -16.285852    8.810907    -22.348230    34.932201    0.000000    0.000000    0.000000    -88.409744    -45.428768    -54.134602    7.604016    15.930305    -7.617136    20.441069    14.025865    -35.884853    0.000000    0.000000    0.000000    
-19.957420    163.568573    -79.638901    -9.307989    -21.837591    42.020100    2.898795    4.787093    -4.609500    5.442093    8.392508    -1.897192    18.924250    -2.138908    -1.046256    1.729760    -0.176851    -4.041100    15.683915    1.872091    -22.130354    -27.767298    10.419124    -57.827118    5.024097    -44.650818    -100.023018    -5.358019    -39.544769    -18.787010    10.960668    7.398359    -9.317431    30.642366    11.705381    14.257313    -13.044985    2.891281    47.743820    -22.966938    2.470612    29.909286    24.432583    -0.727402    6.754441    -5.015467    37.172710    -16.287239    8.774134    -22.320045    34.922588    0.000000    0.000000    0.000000    -88.446602    -45.517918    -54.603756    7.467831    16.173126    -7.273256    20.411411    14.077969    -35.717407    0.000000    0.000000    0.000000    
